<svg width="39" height="39" viewBox="0 0 39 39" fill="none" xmlns="http://www.w3.org/2000/svg">
<g id="streamline:industry-innovation-and-infrastructure-solid">
<path id="Vector" fill-rule="evenodd" clip-rule="evenodd" d="M20.0766 1.33158C19.8955 1.24922 19.6989 1.2066 19.5 1.2066C19.3011 1.2066 19.1044 1.24922 18.9233 1.33158L11.6164 4.65772L19.4944 8.24572L27.378 4.65493L20.0766 1.33158ZM10.3071 15.6279V7.12029L18.1071 10.6721V20.0739L11.1178 16.8954C10.8744 16.7847 10.6681 16.6063 10.5234 16.3816C10.3786 16.1568 10.3016 15.8952 10.3016 15.6279H10.3071ZM20.8928 34.3256V25.0213L28.2806 28.3864V37.7882L21.2996 34.6097C21.1471 34.5404 21.0112 34.4441 20.8928 34.3256ZM31.0663 37.7938V28.3864L38.8746 24.8319V33.3422C38.8746 33.6095 38.7976 33.8712 38.6528 34.0959C38.5081 34.3207 38.3018 34.499 38.0584 34.6097L31.0663 37.7938ZM18.1016 25.0213V34.3367C17.9857 34.4502 17.8509 34.5426 17.7032 34.6097L10.7111 37.7938V28.3864L18.1016 25.0213ZM7.92535 28.3864V37.7882L0.947135 34.6097C0.7038 34.499 0.497452 34.3207 0.352722 34.0959C0.207992 33.8712 0.130994 33.6095 0.13092 33.3422V24.8346L7.93092 28.3864H7.92535ZM20.8873 20.0794V10.6693L28.6956 7.11472V15.6279C28.6956 15.8952 28.6186 16.1568 28.4738 16.3816C28.3291 16.6063 28.1228 16.7847 27.8794 16.8954L20.8873 20.0794ZM29.0996 19.0487C29.2806 18.9664 29.4773 18.9237 29.6762 18.9237C29.8751 18.9237 30.0718 18.9664 30.2528 19.0487L37.5514 22.3693L29.6678 25.9601L21.7982 22.3693L29.1023 19.0431L29.0996 19.0487ZM8.74714 19.0487C8.92822 18.9664 9.12484 18.9237 9.32378 18.9237C9.52271 18.9237 9.71934 18.9664 9.90042 19.0487L17.199 22.3693L9.31821 25.9629L1.44299 22.3693L8.74714 19.0487Z" fill="#DAA520"/>
</g>
</svg>
