<svg width="27" height="27" viewBox="0 0 27 27" fill="none" xmlns="http://www.w3.org/2000/svg">
<g clip-path="url(#clip0_3_251)">
<path d="M13.0552 20.2799C11.0354 20.2799 9.09841 19.486 7.67022 18.0727C6.24202 16.6595 5.43968 14.7427 5.43968 12.7441C5.43968 10.7454 6.24202 8.82863 7.67022 7.41538C9.09841 6.00212 11.0354 5.20816 13.0552 5.20816C15.075 5.20816 17.012 6.00212 18.4402 7.41538C19.8684 8.82863 20.6708 10.7454 20.6708 12.7441C20.6708 14.7427 19.8684 16.6595 18.4402 18.0727C17.012 19.486 15.075 20.2799 13.0552 20.2799ZM13.0552 3.05505C10.4584 3.05505 7.96789 4.07585 6.13164 5.89289C4.2954 7.70994 3.26381 10.1744 3.26381 12.7441C3.26381 15.3137 4.2954 17.7782 6.13164 19.5952C7.96789 21.4123 10.4584 22.4331 13.0552 22.4331C15.6521 22.4331 18.1425 21.4123 19.9788 19.5952C21.815 17.7782 22.8466 15.3137 22.8466 12.7441C22.8466 10.1744 21.815 7.70994 19.9788 5.89289C18.1425 4.07585 15.6521 3.05505 13.0552 3.05505ZM13.5992 7.36127H11.9673V13.8206L17.135 16.8888L17.9509 15.5646L13.5992 13.0132V7.36127ZM8.57293 2.39835L7.18037 0.751221L2.17587 4.89596L3.57931 6.54309L8.57293 2.39835ZM23.9346 4.90673L18.9301 0.751221L17.5266 2.39835L22.5311 6.55386L23.9346 4.90673Z" fill="#DAA520"/>
</g>
<defs>
<clipPath id="clip0_3_251">
<rect width="26.1104" height="25.8373" fill="white" transform="translate(0 0.751221)"/>
</clipPath>
</defs>
</svg>
