<svg width="26" height="26" viewBox="0 0 26 26" fill="none" xmlns="http://www.w3.org/2000/svg">
<path d="M16.9 13C16.9 14.0344 16.4891 15.0263 15.7577 15.7577C15.0263 16.4891 14.0343 16.9 13 16.9C11.9656 16.9 10.9737 16.4891 10.2423 15.7577C9.51088 15.0263 9.09999 14.0344 9.09999 13C9.09999 12.7777 9.12339 12.5606 9.16369 12.35H7.79999V17.5461C7.79999 17.9075 8.09249 18.2 8.45389 18.2H17.5474C17.7206 18.1997 17.8866 18.1306 18.0089 18.008C18.1313 17.8854 18.2 17.7193 18.2 17.5461V12.35H16.8363C16.8766 12.5606 16.9 12.7777 16.9 13ZM13 15.6C13.3415 15.5999 13.6797 15.5326 13.9952 15.4018C14.3107 15.271 14.5973 15.0794 14.8387 14.8378C15.0802 14.5963 15.2717 14.3096 15.4023 13.994C15.5329 13.6784 15.6001 13.3402 15.6 12.9987C15.5999 12.6572 15.5326 12.319 15.4018 12.0035C15.271 11.6881 15.0794 11.4014 14.8378 11.16C14.5963 10.9185 14.3095 10.727 13.994 10.5964C13.6784 10.4658 13.3402 10.3986 12.9987 10.3987C12.309 10.3989 11.6475 10.6731 11.1599 11.1609C10.6723 11.6487 10.3985 12.3103 10.3987 13C10.3989 13.6898 10.673 14.3512 11.1609 14.8388C11.6487 15.3264 12.3103 15.6002 13 15.6ZM16.12 10.27H17.6787C17.7822 10.27 17.8816 10.229 17.9549 10.1559C18.0283 10.0828 18.0696 9.98357 18.07 9.88002V8.32132C18.07 8.21754 18.0288 8.11801 17.9554 8.04463C17.882 7.97125 17.7825 7.93002 17.6787 7.93002H16.12C16.0162 7.93002 15.9167 7.97125 15.8433 8.04463C15.7699 8.11801 15.7287 8.21754 15.7287 8.32132V9.88002C15.73 10.0945 15.9055 10.27 16.12 10.27ZM13 0.52002C9.69009 0.52002 6.51575 1.83487 4.1753 4.17533C1.83484 6.51578 0.519989 9.69012 0.519989 13C0.519989 16.3099 1.83484 19.4843 4.1753 21.8247C6.51575 24.1652 9.69009 25.48 13 25.48C14.6389 25.48 16.2617 25.1572 17.7759 24.53C19.29 23.9029 20.6658 22.9836 21.8247 21.8247C22.9836 20.6658 23.9028 19.2901 24.53 17.7759C25.1572 16.2618 25.48 14.6389 25.48 13C25.48 11.3611 25.1572 9.73827 24.53 8.22413C23.9028 6.70999 22.9836 5.3342 21.8247 4.17533C20.6658 3.01645 19.29 2.09718 17.7759 1.47C16.2617 0.842824 14.6389 0.52002 13 0.52002ZM19.5 18.0557C19.5 18.85 18.85 19.5 18.0557 19.5H7.94429C7.14999 19.5 6.49999 18.85 6.49999 18.0557V7.94432C6.49999 7.15002 7.14999 6.50002 7.94429 6.50002H18.0557C18.85 6.50002 19.5 7.15002 19.5 7.94432V18.0557Z" fill="#DAA520"/>
</svg>
