<svg width="23" height="20" viewBox="0 0 23 20" fill="none" xmlns="http://www.w3.org/2000/svg">
<mask id="mask0_2_25" style="mask-type:luminance" maskUnits="userSpaceOnUse" x="0" y="0" width="23" height="20">
<path d="M22.1338 0H0V19.8333H22.1338V0Z" fill="white"/>
</mask>
<g mask="url(#mask0_2_25)">
<path d="M20.3643 17.6291C20.7455 16.9247 21.0617 16.1869 21.309 15.425C21.5429 14.7044 21.7246 13.968 21.8528 13.2213C21.9797 12.4924 22.0623 11.7565 22.1002 11.0176C22.1194 10.6605 22.1338 10.2981 22.1338 9.91592C22.1338 9.5337 22.1194 9.17133 22.1002 8.81397C22.0621 8.07518 21.9795 7.33933 21.8528 6.61051C21.7246 5.86385 21.5429 5.12739 21.309 4.40683H5.57886C5.22165 5.10572 4.9516 5.84582 4.77475 6.61051C4.60422 7.33454 4.49483 8.07163 4.4477 8.81397C4.42371 9.16413 4.40758 9.52847 4.40758 9.91592C4.40758 10.3034 4.42371 10.6675 4.4477 11.0176C4.49477 11.7601 4.60416 12.4972 4.77475 13.2213C4.95144 13.9861 5.2215 14.7262 5.57886 15.425H16.5545C16.9126 14.7264 17.183 13.9862 17.3597 13.2213C17.5303 12.4972 17.6397 11.7601 17.6868 11.0176C17.711 10.6675 17.7273 10.3036 17.7273 9.91592C17.7273 9.52825 17.711 9.16413 17.6868 8.81397H8.85876C8.83129 9.15716 8.81515 9.52302 8.81515 9.91592C8.81515 10.3088 8.83129 10.6745 8.85876 11.0176H15.4787C15.4265 11.7645 15.2929 12.5034 15.0804 13.2213H7.05409C6.84161 12.5034 6.70767 11.7645 6.65465 11.0176C6.62761 10.6745 6.61104 10.3093 6.61104 9.91592C6.61104 9.52258 6.62696 9.15716 6.65465 8.81397C6.70776 8.0672 6.8417 7.32841 7.05409 6.61051H19.616C19.7589 7.33746 19.8517 8.07339 19.8935 8.8131C19.9153 9.1674 19.9299 9.53261 19.9299 9.91505C19.9299 10.2975 19.9147 10.6625 19.8935 11.0168C19.8516 11.7569 19.7588 12.4932 19.6155 13.2205C19.4676 13.9726 19.253 14.7101 18.9741 15.4241C18.6723 16.2103 18.2652 16.9518 17.7637 17.6283H4.36942C3.86766 16.9519 3.46032 16.2104 3.15867 15.4241C2.87974 14.7101 2.66515 13.9726 2.51743 13.2205C2.37377 12.4932 2.28089 11.7569 2.23944 11.0168C2.21763 10.6625 2.20324 10.2992 2.20324 9.91505C2.20324 9.53087 2.21851 9.1674 2.23944 8.8131C2.28095 8.07306 2.37383 7.3368 2.51743 6.60964C2.66517 5.85746 2.87978 5.11998 3.15867 4.40596C3.46041 3.61987 3.86774 2.87851 4.36942 2.20228H20.3638C19.5414 0.693473 18.7405 -0.00140381 18.7405 -0.00140381H3.39241C3.39241 -0.00140381 2.592 0.693473 1.76979 2.20228C1.38861 2.90662 1.07239 3.64423 0.825044 4.40596C0.591152 5.12654 0.409354 5.863 0.281047 6.60964C0.154193 7.33846 0.0714795 8.07429 0.0333594 8.8131C0.0141723 9.17046 0 9.53261 0 9.91505C0 10.2975 0.0141723 10.6596 0.0333594 11.0168C0.07143 11.7557 0.154144 12.4916 0.281047 13.2205C0.409354 13.9671 0.591152 14.7036 0.825044 15.4241C1.07223 16.1861 1.38845 16.9238 1.76979 17.6283C2.592 19.1364 3.39241 19.8319 3.39241 19.8319H18.741C18.741 19.8319 19.5418 19.1373 20.3643 17.6291Z" fill="#DAA520"/>
</g>
</svg>
