<svg width="47" height="47" viewBox="0 0 47 47" fill="none" xmlns="http://www.w3.org/2000/svg">
<g id="vaadin:medal">
<path id="Vector" d="M29.375 35.8375C28.4938 35.8375 27.9063 35.5438 27.025 35.25L23.5 33.7812L19.975 35.25C19.3875 35.5438 18.5063 35.8375 17.625 35.8375C17.0375 35.8375 16.7438 35.8375 16.1563 35.5438L14.6875 47L23.5 41.125L32.3125 47L30.55 35.5438C30.2563 35.8375 29.6688 35.8375 29.375 35.8375ZM37.8938 17.3313C37.6 16.7437 37.6 15.8625 37.8938 15.275L39.6563 11.75C40.2438 10.575 39.6563 9.10625 38.1875 8.51875L34.3688 7.05C33.7813 6.75625 33.1938 6.16875 32.9 5.58125L31.4313 1.7625C31.1375 0.5875 30.2563 0 29.375 0C29.0813 0 28.4938 0 28.2 0.29375L24.3813 2.05625H23.5C23.2063 2.05625 22.9125 2.05625 22.6188 1.7625L18.8 0.29375C18.5063 0 17.9188 0 17.625 0C16.7438 0 15.8625 0.5875 15.275 1.46875L13.8063 5.58125C13.8063 6.16875 13.2188 6.75625 12.6313 7.05L8.51876 8.51875C7.34376 8.8125 6.75626 10.2812 7.34376 11.75L9.10626 15.5688C9.40001 16.1562 9.40001 17.0375 9.10626 17.625L7.34376 21.15C6.75626 22.325 7.34376 23.7938 8.81251 24.3813L12.6313 25.85C13.2188 26.1438 13.8063 26.7313 14.1 27.3188L15.5688 31.1375C15.8625 32.3125 16.7438 32.9 17.625 32.9C17.9188 32.9 18.2125 32.9 18.5063 32.6063L22.325 30.8438C22.6188 30.8438 22.9125 30.55 23.2063 30.55C23.5 30.55 23.7938 30.55 24.0875 30.8438L27.9063 32.6063C28.2 32.9 28.4938 32.9 28.7875 32.9C29.6688 32.9 30.55 32.3125 31.1375 31.4312L32.6063 27.6125C32.9 27.025 33.4875 26.4375 34.075 26.1437L37.8938 24.675C39.0688 24.0875 39.95 22.6188 39.3625 21.4438L37.8938 17.3313ZM23.5 28.2C17.0375 28.2 11.75 22.9125 11.75 16.45C11.75 9.9875 17.0375 4.7 23.5 4.7C29.9625 4.7 35.25 9.9875 35.25 16.45C35.25 22.9125 29.9625 28.2 23.5 28.2Z" fill="#DAA520"/>
<path id="Vector_2" d="M32.3125 16.45C32.3125 18.7872 31.384 21.0287 29.7314 22.6814C28.0787 24.3341 25.8372 25.2625 23.5 25.2625C21.1628 25.2625 18.9213 24.3341 17.2686 22.6814C15.616 21.0287 14.6875 18.7872 14.6875 16.45C14.6875 14.1128 15.616 11.8713 17.2686 10.2186C18.9213 8.56597 21.1628 7.63751 23.5 7.63751C25.8372 7.63751 28.0787 8.56597 29.7314 10.2186C31.384 11.8713 32.3125 14.1128 32.3125 16.45Z" fill="#DAA520"/>
</g>
</svg>
