<svg width="35" height="35" viewBox="0 0 35 35" fill="none" xmlns="http://www.w3.org/2000/svg">
<path d="M5.90625 30.625C5.46875 30.625 5.10417 30.4792 4.8125 30.1875C4.52083 29.8958 4.375 29.5313 4.375 29.0938V23.1875C4.375 22.8472 4.48437 22.5492 4.70312 22.2935C4.92187 22.0378 5.20139 21.874 5.54167 21.8021L10.5729 20.7812C10.9132 20.7326 11.2598 20.7633 11.6127 20.8731C11.9656 20.983 12.251 21.1468 12.4688 21.3646L15.8958 24.7917C17.7431 23.6736 19.4323 22.349 20.9635 20.8177C22.4948 19.2865 23.7708 17.6458 24.7917 15.8958L21.2917 12.3229C21.0729 12.1042 20.9329 11.8548 20.8717 11.5748C20.8104 11.2948 20.8046 10.9851 20.8542 10.6458L21.8021 5.54167C21.8507 5.20139 22.0087 4.92187 22.276 4.70312C22.5434 4.48437 22.8472 4.375 23.1875 4.375H29.0938C29.5313 4.375 29.8958 4.52083 30.1875 4.8125C30.4792 5.10417 30.625 5.46875 30.625 5.90625C30.625 9.04167 29.926 12.0983 28.5279 15.0763C27.1299 18.0542 25.2826 20.6913 22.9862 22.9877C20.6899 25.2841 18.0527 27.1313 15.0748 28.5294C12.0969 29.9274 9.04069 30.626 5.90625 30.625Z" fill="#DAA520"/>
</svg>
